<svg width="1440" height="517" viewBox="0 0 1440 517" fill="none" xmlns="http://www.w3.org/2000/svg">
<path opacity="0.6" fill-rule="evenodd" clip-rule="evenodd" d="M1360 135.541L1440 149.617V235.791V236.757V517H0V236.757V235.791V4.83179L80 39.0173C80.8991 39.394 81.8083 39.775 82.7275 40.1601C163.596 74.0469 321.798 140.339 480 149.617C576.667 155.692 673.333 140.48 770 125.268C833.333 115.302 896.667 105.336 960 101.356C1120 91.9713 1280 120.794 1360 135.541Z" fill="#03275A"/>
<path fill-rule="evenodd" clip-rule="evenodd" d="M1440 144.786L1360 130.709C1280 115.963 1120 87.1395 960 96.5238C896.667 100.504 833.333 110.47 770 120.437C673.333 135.648 576.667 150.86 480 144.786C321.798 135.507 163.596 69.2151 82.7275 35.3283L80 34.1855L0 0V15.4617L80 49.6472L82.7275 50.79C163.596 84.6768 321.798 150.969 480 160.247C576.667 166.322 673.333 151.11 770 135.898C833.333 125.932 896.667 115.965 960 111.985C1120 102.601 1280 131.424 1360 146.171L1440 160.247V144.786Z" fill="#1A7DD7"/>
</svg>
