<svg width="1440" height="515" viewBox="0 0 1440 515" fill="none" xmlns="http://www.w3.org/2000/svg">
<path opacity="0.82" fill-rule="evenodd" clip-rule="evenodd" d="M1504 255.586L1602 282.17V446.736H1504H1440V906H0.000366211V446.736H-64.0001H-162V8.73615L-64.0001 73.2968C-62.8987 74.0082 -61.7849 74.7277 -60.6589 75.4551C38.4055 139.452 232.203 264.646 426 282.17C544.417 293.642 662.833 264.914 781.25 236.185C858.833 217.363 936.417 198.541 1014 191.025C1210 173.303 1406 227.736 1504 255.586Z" fill="#001C4D"/>
<path opacity="0.52" d="M432.5 282C255.7 262.8 68.1667 163 -0.5 115.5V86.5H1440V238.5L1371 220.5C1245.8 188.5 1120.17 185.167 1073 187.5C959.8 186.7 802.5 227.833 738 248.5C613.2 285.7 482.333 286.333 432.5 282Z" fill="#001C4D"/>
<path fill-rule="evenodd" clip-rule="evenodd" d="M1602 273.419L1504 246.837C1406 218.989 1210 164.558 1014 182.28C936.416 189.795 858.833 208.616 781.25 227.437C662.833 256.164 544.417 284.891 426 273.419C232.203 255.897 38.4058 130.709 -60.6585 66.7155L-63.9998 64.5573L-162 0V15.1985L-63.9998 79.7559L-60.6585 81.914C38.4058 145.907 232.203 271.095 426 288.618C544.417 300.089 662.833 271.363 781.25 242.636C858.833 223.815 936.416 204.994 1014 197.478C1210 179.756 1406 234.187 1504 262.035L1602 288.618V273.419ZM1602 436.152V451.351H1602V436.152H1602Z" fill="#1A7DD7"/>
</svg>
