<svg width="414" height="45" viewBox="0 0 414 45" fill="none" xmlns="http://www.w3.org/2000/svg">
<path fill-rule="evenodd" clip-rule="evenodd" d="M18.9855 45L28.0145 45C28.2733 40.5383 31.9734 37 36.5 37C41.0266 37 44.7267 40.5383 44.9855 45L54.0145 45C54.2733 40.5383 57.9734 37 62.5 37C67.0266 37 70.7267 40.5383 70.9855 45L80.0145 45C80.2733 40.5383 83.9734 37 88.5 37C93.0266 37 96.7267 40.5383 96.9855 45L106.014 45C106.273 40.5383 109.973 37 114.5 37C119.027 37 122.727 40.5383 122.986 45L132.014 45C132.273 40.5383 135.973 37 140.5 37C145.027 37 148.727 40.5383 148.986 45L158.014 45C158.273 40.5383 161.973 37 166.5 37C171.027 37 174.727 40.5383 174.986 45L184.014 45C184.273 40.5383 187.973 37 192.5 37C197.027 37 200.727 40.5383 200.986 45L210.014 45C210.273 40.5383 213.973 37 218.5 37C223.027 37 226.727 40.5383 226.986 45L236.014 45C236.273 40.5383 239.973 37 244.5 37C249.027 37 252.727 40.5383 252.986 45L262.014 45C262.273 40.5383 265.973 37 270.5 37C275.027 37 278.727 40.5383 278.986 45L288.014 45C288.273 40.5383 291.973 37 296.5 37C301.027 37 304.727 40.5383 304.986 45L314.014 45C314.273 40.5383 317.973 37 322.5 37C327.027 37 330.727 40.5383 330.986 45L340.014 45C340.273 40.5383 343.973 37 348.5 37C353.027 37 356.727 40.5383 356.986 45L366.014 45C366.273 40.5383 369.973 37 374.5 37C379.027 37 382.727 40.5383 382.986 45L392.014 45C392.273 40.5383 395.973 37 400.5 37C405.027 37 408.727 40.5383 408.986 45L414 45L414 0L-3.93402e-06 3.6193e-05L0 45L2.01447 45C2.27328 40.5383 5.97342 37 10.5 37C15.0266 37 18.7267 40.5383 18.9855 45Z" fill="white"/>
</svg>
