<svg width="32" height="32" viewBox="0 0 32 32" fill="none" xmlns="http://www.w3.org/2000/svg">
<g clip-path="url(#clip0)">
<path fill-rule="evenodd" clip-rule="evenodd" d="M17.5785 0.529804C19.0887 1.94558 21.7079 3.90383 25.7823 5.44436C28.2477 6.37648 29.7687 8.85964 29.4903 11.481C29.1683 14.5105 28.5814 18.4959 27.5856 21.9763C26.9212 24.2976 25.4386 26.2991 23.4144 27.615C21.569 28.815 19.2086 30.3399 17.6315 31.3577C16.5797 32.0364 15.2291 32.0364 14.1773 31.3577C12.6002 30.3399 10.2398 28.815 8.39439 27.615C6.37022 26.2991 4.88755 24.2976 4.22349 21.9763C3.2274 18.4959 2.64048 14.5105 2.31846 11.481C2.04014 8.85964 3.56114 6.37648 6.02647 5.44436C10.1009 3.90383 12.7201 1.94558 14.2303 0.529804C15.1734 -0.354473 16.6354 -0.354229 17.5785 0.529804ZM15.9941 29.4245V29.4248C15.9461 29.4248 15.8837 29.4189 15.815 29.3978C15.7665 29.3829 15.7149 29.3604 15.663 29.3269C14.0356 28.2766 11.7124 26.7756 9.88741 25.5891C9.01543 25.0222 8.27927 24.2846 7.7184 23.4296C7.26741 22.7735 6.92149 22.0446 6.69926 21.2678C6.17826 19.4468 5.77982 17.4939 5.47782 15.6609H5.54522C5.28625 14.0704 5.09983 12.5754 4.96871 11.342C4.81368 9.88304 5.65987 8.5034 7.02657 7.98655C11.4455 6.3159 14.3308 4.1638 15.9936 2.62352L15.9938 2.62373L15.9941 2.62352V2.62394C17.657 4.1642 20.5424 6.31605 24.9606 7.98655C26.3273 8.5034 27.1735 9.88304 27.0185 11.342C26.7331 14.0264 26.186 17.9507 25.1984 21.4011C24.7058 23.123 23.6054 24.6103 22.0998 25.5891C20.2795 26.7727 17.9541 28.2751 16.3242 29.3269C16.1994 29.4075 16.0759 29.4245 15.9941 29.4245Z" fill="black"/>
<path d="M19 16.6H16.6V19H15.4V16.6H13V15.4H15.4V13H16.6V15.4H19V16.6ZM16 10C15.2121 10 14.4319 10.1552 13.7039 10.4567C12.9759 10.7583 12.3145 11.2002 11.7574 11.7574C10.6321 12.8826 10 14.4087 10 16C10 17.5913 10.6321 19.1174 11.7574 20.2426C12.3145 20.7998 12.9759 21.2417 13.7039 21.5433C14.4319 21.8448 15.2121 22 16 22C17.5913 22 19.1174 21.3679 20.2426 20.2426C21.3679 19.1174 22 17.5913 22 16C22 15.2121 21.8448 14.4319 21.5433 13.7039C21.2417 12.9759 20.7998 12.3145 20.2426 11.7574C19.6855 11.2002 19.0241 10.7583 18.2961 10.4567C17.5681 10.1552 16.7879 10 16 10Z" fill="black"/>
</g>
<defs>
<clipPath id="clip0">
<rect width="32" height="32" fill="white"/>
</clipPath>
</defs>
</svg>
