<svg width="32" height="32" viewBox="0 0 32 32" fill="none" xmlns="http://www.w3.org/2000/svg">
<path fill-rule="evenodd" clip-rule="evenodd" d="M16.6588 7.37764C16.7782 7.25794 16.9201 7.16296 17.0763 7.09816C17.2324 7.03336 17.3998 7 17.5689 7C17.738 7 17.9054 7.03336 18.0616 7.09816C18.2178 7.16296 18.3596 7.25794 18.479 7.37764L26.1916 15.0902C26.3113 15.2097 26.4063 15.3515 26.4711 15.5077C26.5359 15.6638 26.5693 15.8313 26.5693 16.0003C26.5693 16.1694 26.5359 16.3368 26.4711 16.493C26.4063 16.6492 26.3113 16.791 26.1916 16.9104L18.479 24.623C18.2376 24.8644 17.9103 25 17.5689 25C17.2276 25 16.9002 24.8644 16.6588 24.623C16.4175 24.3817 16.2819 24.0543 16.2819 23.7129C16.2819 23.3716 16.4175 23.0442 16.6588 22.8029L23.4639 16.0003L16.6588 9.19782C16.5391 9.07841 16.4442 8.93656 16.3793 8.7804C16.3145 8.62423 16.2812 8.45681 16.2812 8.28773C16.2812 8.11865 16.3145 7.95123 16.3793 7.79507C16.4442 7.6389 16.5391 7.49705 16.6588 7.37764Z" fill="black"/>
<path fill-rule="evenodd" clip-rule="evenodd" d="M6 16.0003C6 15.6594 6.13543 15.3325 6.3765 15.0914C6.61756 14.8503 6.94452 14.7149 7.28543 14.7149H23.9961C24.337 14.7149 24.664 14.8503 24.905 15.0914C25.1461 15.3325 25.2815 15.6594 25.2815 16.0003C25.2815 16.3413 25.1461 16.6682 24.905 16.9093C24.664 17.1503 24.337 17.2858 23.9961 17.2858H7.28543C6.94452 17.2858 6.61756 17.1503 6.3765 16.9093C6.13543 16.6682 6 16.3413 6 16.0003Z" fill="black"/>
</svg>
