<svg width="32" height="32" viewBox="0 0 32 32" fill="none" xmlns="http://www.w3.org/2000/svg">
<path d="M14.6667 20H17.3334V22.6667H14.6667V20ZM14.6667 9.33333H17.3334V17.3333H14.6667V9.33333ZM15.9867 2.66666C8.62669 2.66666 2.66669 8.64 2.66669 16C2.66669 23.36 8.62669 29.3333 15.9867 29.3333C23.36 29.3333 29.3334 23.36 29.3334 16C29.3334 8.64 23.36 2.66666 15.9867 2.66666ZM16 26.6667C10.1067 26.6667 5.33335 21.8933 5.33335 16C5.33335 10.1067 10.1067 5.33333 16 5.33333C21.8934 5.33333 26.6667 10.1067 26.6667 16C26.6667 21.8933 21.8934 26.6667 16 26.6667Z" fill="black"/>
</svg>
