<svg width="23" height="15" viewBox="0 0 23 15" fill="none" xmlns="http://www.w3.org/2000/svg">
<g clip-path="url(#clip0)">
<path d="M22.5022 0H0V15H22.5022V0Z" fill="#F0F0F0"/>
<path d="M12.6575 0H9.84471V6.09581H0V8.90859H9.84471V15H12.6575V8.90859H22.5022V6.09581H12.6575V0Z" fill="#D80027"/>
<path d="M17.3074 10.1084L22.5022 12.9959V10.1084H17.3074Z" fill="#0052B4"/>
<path d="M13.6991 10.1084L22.5022 15V13.62L16.1866 10.1084H13.6991Z" fill="#0052B4"/>
<path d="M20.1553 15L13.6991 11.4137V15H20.1553Z" fill="#0052B4"/>
<path d="M13.6991 10.1084L22.5022 15V13.62L16.1866 10.1084H13.6991Z" fill="#F0F0F0"/>
<path d="M13.6991 10.1084L22.5022 15V13.62L16.1866 10.1084H13.6991Z" fill="#D80027"/>
<path d="M3.96865 10.1084L0 12.3147V10.1084H3.96865Z" fill="#0052B4"/>
<path d="M8.80312 10.7325V15H1.12073L8.80312 10.7325Z" fill="#0052B4"/>
<path d="M6.31556 10.1084L0 13.62V15L8.80311 10.1084H6.31556Z" fill="#D80027"/>
<path d="M5.19484 4.89158L0 2.00409V4.89158H5.19484Z" fill="#0052B4"/>
<path d="M8.80311 4.8916L0 0V1.38441L6.31556 4.8916H8.80311Z" fill="#0052B4"/>
<path d="M2.34686 0L8.80306 3.59068V0H2.34686Z" fill="#0052B4"/>
<path d="M8.80311 4.8916L0 0V1.38441L6.31556 4.8916H8.80311Z" fill="#F0F0F0"/>
<path d="M8.80311 4.8916L0 0V1.38441L6.31556 4.8916H8.80311Z" fill="#D80027"/>
<path d="M18.5336 4.89159L22.5023 2.68532V4.89159H18.5336Z" fill="#0052B4"/>
<path d="M13.6991 4.2719V0H21.3815L13.6991 4.2719Z" fill="#0052B4"/>
<path d="M16.1866 4.8916L22.5022 1.38441V0L13.6991 4.8916H16.1866Z" fill="#D80027"/>
</g>
<defs>
<clipPath id="clip0">
<rect width="22.5022" height="15" fill="white"/>
</clipPath>
</defs>
</svg>
