<svg width="130" height="807" viewBox="0 0 130 807" fill="none" xmlns="http://www.w3.org/2000/svg">
<path fill-rule="evenodd" clip-rule="evenodd" d="M86.834 5.1475e-07L83.3205 44.8333C79.305 89.6667 72.278 179.333 79.305 269C86.834 358.667 108.417 448.333 119.459 538C130 627.667 130 717.333 130 762.167L130 807L9.62338e-06 807L9.08875e-06 762.167C8.55411e-06 717.333 7.48485e-06 627.667 6.41559e-06 538C5.34632e-06 448.333 4.27706e-06 358.667 3.20779e-06 269C2.13853e-06 179.333 1.06926e-06 89.6667 5.34632e-07 44.8333L0 1.55023e-06L86.834 5.1475e-07Z" fill="white"/>
</svg>
