<svg width="32" height="32" viewBox="0 0 32 32" fill="none" xmlns="http://www.w3.org/2000/svg">
<path d="M29.5781 15.7812L17.5031 3.71249L16.6937 2.90312C16.5093 2.71992 16.2599 2.6171 16 2.6171C15.74 2.6171 15.4906 2.71992 15.3062 2.90312L2.42186 15.7812C2.23289 15.9695 2.08355 16.1937 1.98265 16.4405C1.88174 16.6874 1.83132 16.952 1.83436 17.2187C1.84686 18.3187 2.76248 19.1969 3.86248 19.1969H5.19061V29.375H26.8094V19.1969H28.1656C28.7 19.1969 29.2031 18.9875 29.5812 18.6094C29.7674 18.4238 29.9149 18.2031 30.0152 17.9601C30.1156 17.7171 30.1667 17.4566 30.1656 17.1937C30.1656 16.6625 29.9562 16.1594 29.5781 15.7812ZM17.75 27.125H14.25V20.75H17.75V27.125ZM24.5594 16.9469V27.125H19.75V20C19.75 19.3094 19.1906 18.75 18.5 18.75H13.5C12.8094 18.75 12.25 19.3094 12.25 20V27.125H7.44061V16.9469H4.44061L16.0031 5.39374L16.725 6.11562L27.5625 16.9469H24.5594Z" fill="black"/>
</svg>
