<svg width="32" height="32" viewBox="0 0 32 32" fill="none" xmlns="http://www.w3.org/2000/svg">
<path d="M6.64402 9.596C8.25522 9.596 9.56135 8.28987 9.56135 6.67867C9.56135 5.06747 8.25522 3.76133 6.64402 3.76133C5.03282 3.76133 3.72668 5.06747 3.72668 6.67867C3.72668 8.28987 5.03282 9.596 6.64402 9.596Z" fill="black"/>
<path d="M12.316 11.8067V27.992H17.3413V19.988C17.3413 17.876 17.7386 15.8307 20.3573 15.8307C22.94 15.8307 22.972 18.2453 22.972 20.1213V27.9933H28V19.1173C28 14.7573 27.0613 11.4067 21.9653 11.4067C19.5186 11.4067 17.8786 12.7493 17.208 14.02H17.14V11.8067H12.316ZM4.12665 11.8067H9.15998V27.992H4.12665V11.8067Z" fill="black"/>
</svg>
