<svg width="32" height="32" viewBox="0 0 32 32" fill="none" xmlns="http://www.w3.org/2000/svg">
<path d="M24.1333 2.66667C21.8666 2.66667 19.8666 4.4 19.4667 6.53333H5.33332C4.13332 6.53333 3.06665 7.6 3.06665 8.8V21.3333C3.06665 22.5333 4.13332 23.6 5.33332 23.6H9.86665V29.3333L14.4 27.0667L18.9333 29.3333V23.6H23.4667C24.6666 23.6 25.7333 22.5333 25.7333 21.3333V11.7333C27.4666 11.0667 28.8 9.33333 28.8 7.33333C28.9333 4.8 26.8 2.66667 24.1333 2.66667ZM23.6 21.3333H5.33332V19.0667H23.6V21.3333ZM23.6 15.6H5.33332V8.8H19.6C20.1333 10.6667 21.6 11.8667 23.6 12.1333V15.6ZM25.6 7.86667L25.8666 9.06667L26.1333 10.2667L25.8666 10L24.1333 8.93333L23.6 9.33333L22.1333 10.2667L22.5333 8.8L22.6666 8L20.9333 6.53333L20.8 6.4L23.0666 6.13333L24 4L24.9333 6.13333L27.2 6.4L25.6 7.86667Z" fill="black"/>
</svg>
