<svg width="32" height="32" viewBox="0 0 32 32" fill="none" xmlns="http://www.w3.org/2000/svg">
<path fill-rule="evenodd" clip-rule="evenodd" d="M27.3794 8.67669L28.0424 8.01369L32 11.9713L11.9713 32L8.01369 28.0424L8.67669 27.3794C9.21838 26.8376 9.51669 26.1174 9.51669 25.3513C9.51669 24.5853 9.21838 23.865 8.67669 23.3233C8.13494 22.7816 7.41481 22.4833 6.64869 22.4833C5.88256 22.4833 5.16231 22.7816 4.62063 23.3233L3.95762 23.9863L0 20.0287L20.0287 0L23.9864 3.95762L23.3234 4.62063C22.7817 5.16237 22.4834 5.88263 22.4834 6.64869C22.4834 7.41475 22.7817 8.135 23.3234 8.67669C23.8651 9.21838 24.5853 9.51669 25.3514 9.51669C26.1175 9.51669 26.8377 9.21838 27.3794 8.67669ZM11.392 25.3513C11.392 26.2998 11.1154 27.2058 10.6006 27.9772L11.9713 29.348L29.348 11.9713L27.9772 10.6006C27.2058 11.1154 26.2998 11.392 25.3513 11.392C24.0844 11.392 22.8932 10.8986 21.9973 10.0027C21.1014 9.10681 20.608 7.91569 20.608 6.64869C20.608 5.70019 20.8846 4.79419 21.3994 4.02275L20.0287 2.652L2.652 20.0287L4.02275 21.3994C4.79419 20.8846 5.70019 20.608 6.64869 20.608C7.91563 20.608 9.10681 21.1014 10.0027 21.9973C10.8986 22.8932 11.392 24.0843 11.392 25.3513ZM17.3588 13.31L18.6848 11.984L20.0161 13.3153L18.6901 14.6413L17.3588 13.31ZM16.0226 9.3206L14.6966 10.6466L16.0279 11.9779L17.3538 10.6519L16.0226 9.3206ZM20.0217 15.9726L21.3477 14.6466L22.679 15.9779L21.353 17.3039L20.0217 15.9726Z" fill="black"/>
</svg>
